<svg width="354" height="100" viewBox="0 0 354 100" fill="none" xmlns="http://www.w3.org/2000/svg">
<path d="M201.664 20H200.133L193.906 10.4062H193.844C193.859 10.6615 193.878 10.9531 193.898 11.2812C193.919 11.6042 193.935 11.9505 193.945 12.3203C193.961 12.6849 193.969 13.0573 193.969 13.4375V20H192.734V8.57812H194.258L200.461 18.1406H200.516C200.505 17.9583 200.492 17.7005 200.477 17.3672C200.461 17.0286 200.445 16.6667 200.43 16.2812C200.419 15.8906 200.414 15.5286 200.414 15.1953V8.57812H201.664V20ZM207.883 11.2812C208.612 11.2812 209.237 11.4427 209.758 11.7656C210.279 12.0885 210.677 12.5417 210.953 13.125C211.229 13.7031 211.367 14.3802 211.367 15.1562V15.9609H205.453C205.469 16.9661 205.719 17.7318 206.203 18.2578C206.688 18.7839 207.37 19.0469 208.25 19.0469C208.792 19.0469 209.271 18.9974 209.688 18.8984C210.104 18.7995 210.536 18.6536 210.984 18.4609V19.6016C210.552 19.7943 210.122 19.9349 209.695 20.0234C209.273 20.112 208.773 20.1562 208.195 20.1562C207.372 20.1562 206.654 19.9896 206.039 19.6562C205.43 19.3177 204.956 18.8229 204.617 18.1719C204.279 17.5208 204.109 16.724 204.109 15.7812C204.109 14.8594 204.263 14.0625 204.57 13.3906C204.883 12.7135 205.32 12.1927 205.883 11.8281C206.451 11.4635 207.117 11.2812 207.883 11.2812ZM207.867 12.3438C207.174 12.3438 206.622 12.5703 206.211 13.0234C205.799 13.4766 205.555 14.1094 205.477 14.9219H210.008C210.003 14.4115 209.922 13.9635 209.766 13.5781C209.615 13.1875 209.383 12.8854 209.07 12.6719C208.758 12.4531 208.357 12.3438 207.867 12.3438ZM215.453 20L212.203 11.4375H213.594L215.477 16.6172C215.607 16.9714 215.74 17.362 215.875 17.7891C216.01 18.2161 216.104 18.5599 216.156 18.8203H216.211C216.273 18.5599 216.378 18.2161 216.523 17.7891C216.669 17.3568 216.802 16.9661 216.922 16.6172L218.805 11.4375H220.195L216.938 20H215.453ZM224.867 11.2812C225.596 11.2812 226.221 11.4427 226.742 11.7656C227.263 12.0885 227.661 12.5417 227.938 13.125C228.214 13.7031 228.352 14.3802 228.352 15.1562V15.9609H222.438C222.453 16.9661 222.703 17.7318 223.188 18.2578C223.672 18.7839 224.354 19.0469 225.234 19.0469C225.776 19.0469 226.255 18.9974 226.672 18.8984C227.089 18.7995 227.521 18.6536 227.969 18.4609V19.6016C227.536 19.7943 227.107 19.9349 226.68 20.0234C226.258 20.112 225.758 20.1562 225.18 20.1562C224.357 20.1562 223.638 19.9896 223.023 19.6562C222.414 19.3177 221.94 18.8229 221.602 18.1719C221.263 17.5208 221.094 16.724 221.094 15.7812C221.094 14.8594 221.247 14.0625 221.555 13.3906C221.867 12.7135 222.305 12.1927 222.867 11.8281C223.435 11.4635 224.102 11.2812 224.867 11.2812ZM224.852 12.3438C224.159 12.3438 223.607 12.5703 223.195 13.0234C222.784 13.4766 222.539 14.1094 222.461 14.9219H226.992C226.987 14.4115 226.906 13.9635 226.75 13.5781C226.599 13.1875 226.367 12.8854 226.055 12.6719C225.742 12.4531 225.341 12.3438 224.852 12.3438ZM234.445 11.2812C234.617 11.2812 234.797 11.2917 234.984 11.3125C235.172 11.3281 235.339 11.3516 235.484 11.3828L235.32 12.5859C235.18 12.5495 235.023 12.5208 234.852 12.5C234.68 12.4792 234.518 12.4688 234.367 12.4688C234.023 12.4688 233.698 12.5391 233.391 12.6797C233.089 12.8151 232.823 13.013 232.594 13.2734C232.365 13.5286 232.185 13.8385 232.055 14.2031C231.924 14.5625 231.859 14.9635 231.859 15.4062V20H230.555V11.4375H231.633L231.773 13.0156H231.828C232.005 12.6979 232.219 12.4089 232.469 12.1484C232.719 11.8828 233.008 11.6719 233.336 11.5156C233.669 11.3594 234.039 11.2812 234.445 11.2812ZM250.555 11.2812C251.497 11.2812 252.208 11.5286 252.688 12.0234C253.167 12.513 253.406 13.3021 253.406 14.3906V20H252.125V14.4531C252.125 13.7604 251.974 13.2422 251.672 12.8984C251.375 12.5495 250.932 12.375 250.344 12.375C249.516 12.375 248.914 12.6146 248.539 13.0938C248.164 13.5729 247.977 14.2786 247.977 15.2109V20H246.688V14.4531C246.688 13.9896 246.62 13.6042 246.484 13.2969C246.354 12.9896 246.156 12.7604 245.891 12.6094C245.63 12.4531 245.299 12.375 244.898 12.375C244.331 12.375 243.875 12.4922 243.531 12.7266C243.188 12.9609 242.938 13.3099 242.781 13.7734C242.63 14.2318 242.555 14.7969 242.555 15.4688V20H241.258V11.4375H242.305L242.5 12.6484H242.57C242.742 12.3516 242.958 12.1016 243.219 11.8984C243.479 11.6953 243.771 11.5417 244.094 11.4375C244.417 11.3333 244.76 11.2812 245.125 11.2812C245.776 11.2812 246.32 11.4036 246.758 11.6484C247.201 11.888 247.521 12.2552 247.719 12.75H247.789C248.07 12.2552 248.456 11.888 248.945 11.6484C249.435 11.4036 249.971 11.2812 250.555 11.2812ZM257.367 11.4375V20H256.07V11.4375H257.367ZM256.734 8.23438C256.948 8.23438 257.13 8.30469 257.281 8.44531C257.438 8.58073 257.516 8.79427 257.516 9.08594C257.516 9.3724 257.438 9.58594 257.281 9.72656C257.13 9.86719 256.948 9.9375 256.734 9.9375C256.51 9.9375 256.323 9.86719 256.172 9.72656C256.026 9.58594 255.953 9.3724 255.953 9.08594C255.953 8.79427 256.026 8.58073 256.172 8.44531C256.323 8.30469 256.51 8.23438 256.734 8.23438ZM265.656 17.6562C265.656 18.2031 265.518 18.6641 265.242 19.0391C264.971 19.4089 264.581 19.6875 264.07 19.875C263.565 20.0625 262.961 20.1562 262.258 20.1562C261.659 20.1562 261.141 20.1094 260.703 20.0156C260.266 19.9219 259.883 19.7891 259.555 19.6172V18.4219C259.904 18.5938 260.32 18.75 260.805 18.8906C261.289 19.0312 261.784 19.1016 262.289 19.1016C263.029 19.1016 263.565 18.9818 263.898 18.7422C264.232 18.5026 264.398 18.1771 264.398 17.7656C264.398 17.5312 264.331 17.3255 264.195 17.1484C264.065 16.9661 263.844 16.7917 263.531 16.625C263.219 16.4531 262.786 16.2656 262.234 16.0625C261.688 15.8542 261.214 15.6484 260.812 15.4453C260.417 15.237 260.109 14.9844 259.891 14.6875C259.677 14.3906 259.57 14.0052 259.57 13.5312C259.57 12.8073 259.862 12.2526 260.445 11.8672C261.034 11.4766 261.805 11.2812 262.758 11.2812C263.273 11.2812 263.755 11.3333 264.203 11.4375C264.656 11.5365 265.078 11.6719 265.469 11.8438L265.031 12.8828C264.677 12.7318 264.299 12.6042 263.898 12.5C263.497 12.3958 263.089 12.3438 262.672 12.3438C262.073 12.3438 261.612 12.4427 261.289 12.6406C260.971 12.8385 260.812 13.1094 260.812 13.4531C260.812 13.7188 260.885 13.9375 261.031 14.1094C261.182 14.2812 261.422 14.4427 261.75 14.5938C262.078 14.7448 262.51 14.9219 263.047 15.125C263.583 15.3229 264.047 15.5286 264.438 15.7422C264.828 15.9505 265.128 16.2057 265.336 16.5078C265.549 16.8047 265.656 17.1875 265.656 17.6562ZM273.281 17.6562C273.281 18.2031 273.143 18.6641 272.867 19.0391C272.596 19.4089 272.206 19.6875 271.695 19.875C271.19 20.0625 270.586 20.1562 269.883 20.1562C269.284 20.1562 268.766 20.1094 268.328 20.0156C267.891 19.9219 267.508 19.7891 267.18 19.6172V18.4219C267.529 18.5938 267.945 18.75 268.43 18.8906C268.914 19.0312 269.409 19.1016 269.914 19.1016C270.654 19.1016 271.19 18.9818 271.523 18.7422C271.857 18.5026 272.023 18.1771 272.023 17.7656C272.023 17.5312 271.956 17.3255 271.82 17.1484C271.69 16.9661 271.469 16.7917 271.156 16.625C270.844 16.4531 270.411 16.2656 269.859 16.0625C269.312 15.8542 268.839 15.6484 268.438 15.4453C268.042 15.237 267.734 14.9844 267.516 14.6875C267.302 14.3906 267.195 14.0052 267.195 13.5312C267.195 12.8073 267.487 12.2526 268.07 11.8672C268.659 11.4766 269.43 11.2812 270.383 11.2812C270.898 11.2812 271.38 11.3333 271.828 11.4375C272.281 11.5365 272.703 11.6719 273.094 11.8438L272.656 12.8828C272.302 12.7318 271.924 12.6042 271.523 12.5C271.122 12.3958 270.714 12.3438 270.297 12.3438C269.698 12.3438 269.237 12.4427 268.914 12.6406C268.596 12.8385 268.438 13.1094 268.438 13.4531C268.438 13.7188 268.51 13.9375 268.656 14.1094C268.807 14.2812 269.047 14.4427 269.375 14.5938C269.703 14.7448 270.135 14.9219 270.672 15.125C271.208 15.3229 271.672 15.5286 272.062 15.7422C272.453 15.9505 272.753 16.2057 272.961 16.5078C273.174 16.8047 273.281 17.1875 273.281 17.6562ZM282.727 11.2969C283.747 11.2969 284.505 11.526 285 11.9844C285.495 12.4427 285.742 13.1745 285.742 14.1797V20H284.797L284.547 18.7344H284.484C284.245 19.0469 283.995 19.3099 283.734 19.5234C283.474 19.7318 283.172 19.8906 282.828 20C282.49 20.1042 282.073 20.1562 281.578 20.1562C281.057 20.1562 280.594 20.0651 280.188 19.8828C279.786 19.7005 279.469 19.4245 279.234 19.0547C279.005 18.6849 278.891 18.2161 278.891 17.6484C278.891 16.7943 279.229 16.138 279.906 15.6797C280.583 15.2214 281.615 14.9714 283 14.9297L284.477 14.8672V14.3438C284.477 13.6042 284.318 13.0859 284 12.7891C283.682 12.4922 283.234 12.3438 282.656 12.3438C282.208 12.3438 281.781 12.4089 281.375 12.5391C280.969 12.6693 280.583 12.8229 280.219 13L279.82 12.0156C280.206 11.8177 280.648 11.6484 281.148 11.5078C281.648 11.3672 282.174 11.2969 282.727 11.2969ZM284.461 15.7812L283.156 15.8359C282.089 15.8776 281.336 16.0521 280.898 16.3594C280.461 16.6667 280.242 17.1016 280.242 17.6641C280.242 18.1536 280.391 18.5156 280.688 18.75C280.984 18.9844 281.378 19.1016 281.867 19.1016C282.628 19.1016 283.25 18.8906 283.734 18.4688C284.219 18.0469 284.461 17.4141 284.461 16.5703V15.7812ZM292.469 11.2812C293.484 11.2812 294.253 11.5312 294.773 12.0312C295.294 12.526 295.555 13.3229 295.555 14.4219V20H294.273V14.5078C294.273 13.7943 294.109 13.2604 293.781 12.9062C293.458 12.5521 292.961 12.375 292.289 12.375C291.341 12.375 290.674 12.6432 290.289 13.1797C289.904 13.7161 289.711 14.4948 289.711 15.5156V20H288.414V11.4375H289.461L289.656 12.6719H289.727C289.909 12.3698 290.141 12.1172 290.422 11.9141C290.703 11.7057 291.018 11.5495 291.367 11.4453C291.716 11.3359 292.083 11.2812 292.469 11.2812ZM309.453 11.4375V20H308.391L308.203 18.7969H308.133C307.956 19.0938 307.727 19.3438 307.445 19.5469C307.164 19.75 306.846 19.901 306.492 20C306.143 20.1042 305.771 20.1562 305.375 20.1562C304.698 20.1562 304.13 20.0469 303.672 19.8281C303.214 19.6094 302.867 19.2708 302.633 18.8125C302.404 18.3542 302.289 17.7656 302.289 17.0469V11.4375H303.602V16.9531C303.602 17.6667 303.763 18.2005 304.086 18.5547C304.409 18.9036 304.901 19.0781 305.562 19.0781C306.198 19.0781 306.703 18.9583 307.078 18.7188C307.458 18.4792 307.732 18.1276 307.898 17.6641C308.065 17.1953 308.148 16.6224 308.148 15.9453V11.4375H309.453ZM316.219 11.2812C317.286 11.2812 318.138 11.6484 318.773 12.3828C319.409 13.1172 319.727 14.2214 319.727 15.6953C319.727 16.6693 319.581 17.487 319.289 18.1484C318.997 18.8099 318.586 19.3099 318.055 19.6484C317.529 19.987 316.906 20.1562 316.188 20.1562C315.734 20.1562 315.336 20.0964 314.992 19.9766C314.648 19.8568 314.354 19.6953 314.109 19.4922C313.865 19.2891 313.661 19.0677 313.5 18.8281H313.406C313.422 19.0312 313.44 19.276 313.461 19.5625C313.487 19.849 313.5 20.099 313.5 20.3125V23.8281H312.195V11.4375H313.266L313.438 12.7031H313.5C313.667 12.4427 313.87 12.2057 314.109 11.9922C314.349 11.7734 314.641 11.6016 314.984 11.4766C315.333 11.3464 315.745 11.2812 316.219 11.2812ZM315.992 12.375C315.398 12.375 314.919 12.4896 314.555 12.7188C314.195 12.9479 313.932 13.2917 313.766 13.75C313.599 14.2031 313.51 14.7734 313.5 15.4609V15.7109C313.5 16.4349 313.578 17.0469 313.734 17.5469C313.896 18.0469 314.159 18.4271 314.523 18.6875C314.893 18.9479 315.388 19.0781 316.008 19.0781C316.539 19.0781 316.982 18.9349 317.336 18.6484C317.69 18.362 317.953 17.9635 318.125 17.4531C318.302 16.9375 318.391 16.3464 318.391 15.6797C318.391 14.6693 318.193 13.8672 317.797 13.2734C317.406 12.6745 316.805 12.375 315.992 12.375ZM325.039 20.1562C323.956 20.1562 323.096 19.7865 322.461 19.0469C321.831 18.3073 321.516 17.2083 321.516 15.75C321.516 14.276 321.839 13.1641 322.484 12.4141C323.13 11.6589 323.99 11.2812 325.062 11.2812C325.516 11.2812 325.911 11.3411 326.25 11.4609C326.589 11.5807 326.88 11.7422 327.125 11.9453C327.37 12.1432 327.576 12.3698 327.742 12.625H327.836C327.815 12.4635 327.794 12.2422 327.773 11.9609C327.753 11.6797 327.742 11.4505 327.742 11.2734V7.84375H329.039V20H327.992L327.797 18.7812H327.742C327.581 19.0365 327.375 19.2682 327.125 19.4766C326.88 19.6849 326.586 19.8516 326.242 19.9766C325.904 20.0964 325.503 20.1562 325.039 20.1562ZM325.242 19.0781C326.159 19.0781 326.807 18.8177 327.188 18.2969C327.568 17.776 327.758 17.0026 327.758 15.9766V15.7422C327.758 14.6536 327.576 13.8177 327.211 13.2344C326.852 12.651 326.195 12.3594 325.242 12.3594C324.445 12.3594 323.849 12.6667 323.453 13.2812C323.057 13.8906 322.859 14.724 322.859 15.7812C322.859 16.8333 323.055 17.6458 323.445 18.2188C323.841 18.7917 324.44 19.0781 325.242 19.0781ZM334.992 11.2969C336.013 11.2969 336.771 11.526 337.266 11.9844C337.76 12.4427 338.008 13.1745 338.008 14.1797V20H337.062L336.812 18.7344H336.75C336.51 19.0469 336.26 19.3099 336 19.5234C335.74 19.7318 335.438 19.8906 335.094 20C334.755 20.1042 334.339 20.1562 333.844 20.1562C333.323 20.1562 332.859 20.0651 332.453 19.8828C332.052 19.7005 331.734 19.4245 331.5 19.0547C331.271 18.6849 331.156 18.2161 331.156 17.6484C331.156 16.7943 331.495 16.138 332.172 15.6797C332.849 15.2214 333.88 14.9714 335.266 14.9297L336.742 14.8672V14.3438C336.742 13.6042 336.583 13.0859 336.266 12.7891C335.948 12.4922 335.5 12.3438 334.922 12.3438C334.474 12.3438 334.047 12.4089 333.641 12.5391C333.234 12.6693 332.849 12.8229 332.484 13L332.086 12.0156C332.471 11.8177 332.914 11.6484 333.414 11.5078C333.914 11.3672 334.44 11.2969 334.992 11.2969ZM336.727 15.7812L335.422 15.8359C334.354 15.8776 333.602 16.0521 333.164 16.3594C332.727 16.6667 332.508 17.1016 332.508 17.6641C332.508 18.1536 332.656 18.5156 332.953 18.75C333.25 18.9844 333.643 19.1016 334.133 19.1016C334.893 19.1016 335.516 18.8906 336 18.4688C336.484 18.0469 336.727 17.4141 336.727 16.5703V15.7812ZM343.445 19.0938C343.659 19.0938 343.878 19.0755 344.102 19.0391C344.326 19.0026 344.508 18.9583 344.648 18.9062V19.9141C344.497 19.9818 344.286 20.0391 344.016 20.0859C343.75 20.1328 343.49 20.1562 343.234 20.1562C342.781 20.1562 342.37 20.0781 342 19.9219C341.63 19.7604 341.333 19.4896 341.109 19.1094C340.891 18.7292 340.781 18.2031 340.781 17.5312V12.4531H339.562V11.8203L340.789 11.3125L341.305 9.45312H342.086V11.4375H344.594V12.4531H342.086V17.4922C342.086 18.0286 342.208 18.4297 342.453 18.6953C342.703 18.9609 343.034 19.0938 343.445 19.0938ZM349.68 11.2812C350.409 11.2812 351.034 11.4427 351.555 11.7656C352.076 12.0885 352.474 12.5417 352.75 13.125C353.026 13.7031 353.164 14.3802 353.164 15.1562V15.9609H347.25C347.266 16.9661 347.516 17.7318 348 18.2578C348.484 18.7839 349.167 19.0469 350.047 19.0469C350.589 19.0469 351.068 18.9974 351.484 18.8984C351.901 18.7995 352.333 18.6536 352.781 18.4609V19.6016C352.349 19.7943 351.919 19.9349 351.492 20.0234C351.07 20.112 350.57 20.1562 349.992 20.1562C349.169 20.1562 348.451 19.9896 347.836 19.6562C347.227 19.3177 346.753 18.8229 346.414 18.1719C346.076 17.5208 345.906 16.724 345.906 15.7812C345.906 14.8594 346.06 14.0625 346.367 13.3906C346.68 12.7135 347.117 12.1927 347.68 11.8281C348.247 11.4635 348.914 11.2812 349.68 11.2812ZM349.664 12.3438C348.971 12.3438 348.419 12.5703 348.008 13.0234C347.596 13.4766 347.352 14.1094 347.273 14.9219H351.805C351.799 14.4115 351.719 13.9635 351.562 13.5781C351.411 13.1875 351.18 12.8854 350.867 12.6719C350.555 12.4531 350.154 12.3438 349.664 12.3438Z" fill="#212121"/>
<rect x="0.5" y="52.5" width="353" height="47" rx="2.5" stroke="#EAEAEA"/>
<g clip-path="url(#clip0_253_178)">
<path d="M290 53H351C352.105 53 353 53.8954 353 55V96.913C353 98.0176 352.105 98.913 351 98.913H290V53Z" fill="#0D6EFD"/>
<path fill-rule="evenodd" clip-rule="evenodd" d="M315.55 73.8945C315.261 73.5926 315.261 73.1032 315.55 72.8014C315.813 72.527 316.225 72.502 316.515 72.7265L316.598 72.8014L322 78.438L327.402 72.8014C327.665 72.527 328.077 72.502 328.367 72.7265L328.45 72.8014C328.713 73.0758 328.737 73.5052 328.521 73.8078L328.45 73.8945L322.524 80.0781C322.261 80.3525 321.849 80.3774 321.559 80.1529L321.476 80.0781L315.55 73.8945Z" fill="white"/>
</g>
<path d="M19.9785 71.0059C21.2682 71.0059 22.2093 71.2588 22.8018 71.7646C23.3988 72.266 23.6973 72.986 23.6973 73.9248C23.6973 74.3486 23.6266 74.752 23.4854 75.1348C23.3486 75.513 23.1253 75.848 22.8154 76.1396C22.5055 76.4268 22.0977 76.6546 21.5918 76.8232C21.0905 76.9873 20.4753 77.0693 19.7461 77.0693H18.5293V81H17.3672V71.0059H19.9785ZM19.8691 71.9971H18.5293V76.0713H19.6162C20.2542 76.0713 20.7852 76.0029 21.209 75.8662C21.6374 75.7295 21.9587 75.5085 22.1729 75.2031C22.387 74.8932 22.4941 74.4831 22.4941 73.9727C22.4941 73.3073 22.2822 72.8128 21.8584 72.4893C21.4346 72.1611 20.7715 71.9971 19.8691 71.9971ZM26.7598 81H25.6182V70.3633H26.7598V81ZM31.9619 73.3848C32.8551 73.3848 33.5182 73.5853 33.9512 73.9863C34.3841 74.3874 34.6006 75.0277 34.6006 75.9072V81H33.7734L33.5547 79.8926H33.5C33.2904 80.166 33.0716 80.3962 32.8438 80.583C32.6159 80.7653 32.3516 80.9043 32.0508 81C31.7546 81.0911 31.39 81.1367 30.957 81.1367C30.5013 81.1367 30.0957 81.057 29.7402 80.8975C29.3893 80.738 29.1113 80.4964 28.9062 80.1729C28.7057 79.8493 28.6055 79.4391 28.6055 78.9424C28.6055 78.195 28.9017 77.6208 29.4941 77.2197C30.0866 76.8187 30.9889 76.5999 32.2012 76.5635L33.4932 76.5088V76.0508C33.4932 75.4036 33.3542 74.9502 33.0762 74.6904C32.7982 74.4307 32.4062 74.3008 31.9004 74.3008C31.5085 74.3008 31.1348 74.3577 30.7793 74.4717C30.4238 74.5856 30.0866 74.7201 29.7676 74.875L29.4189 74.0137C29.7562 73.8405 30.1436 73.6924 30.5811 73.5693C31.0186 73.4463 31.4788 73.3848 31.9619 73.3848ZM33.4795 77.3086L32.3379 77.3564C31.4036 77.3929 30.7451 77.5456 30.3623 77.8145C29.9795 78.0833 29.7881 78.4639 29.7881 78.9561C29.7881 79.3844 29.918 79.7012 30.1777 79.9062C30.4375 80.1113 30.7816 80.2139 31.21 80.2139C31.8753 80.2139 32.4199 80.0293 32.8438 79.6602C33.2676 79.291 33.4795 78.7373 33.4795 77.999V77.3086ZM39.9395 81.1367C39.265 81.1367 38.6702 80.9977 38.1553 80.7197C37.6403 80.4417 37.2393 80.0179 36.9521 79.4482C36.665 78.8786 36.5215 78.1608 36.5215 77.2949C36.5215 76.388 36.6719 75.6475 36.9727 75.0732C37.278 74.4945 37.6973 74.0661 38.2305 73.7881C38.7637 73.5101 39.3698 73.3711 40.0488 73.3711C40.4225 73.3711 40.7826 73.4098 41.1289 73.4873C41.4798 73.5602 41.7669 73.6536 41.9902 73.7676L41.6484 74.7178C41.4206 74.6266 41.1562 74.5446 40.8555 74.4717C40.5592 74.3988 40.2812 74.3623 40.0215 74.3623C39.502 74.3623 39.069 74.474 38.7227 74.6973C38.3809 74.9206 38.1234 75.2487 37.9502 75.6816C37.7816 76.1146 37.6973 76.6478 37.6973 77.2812C37.6973 77.8874 37.7793 78.4046 37.9434 78.833C38.112 79.2614 38.3604 79.5895 38.6885 79.8174C39.0212 80.0407 39.4359 80.1523 39.9326 80.1523C40.3291 80.1523 40.6868 80.1113 41.0059 80.0293C41.3249 79.9427 41.6143 79.8424 41.874 79.7285V80.7402C41.6234 80.8678 41.3431 80.9658 41.0332 81.0342C40.7279 81.1025 40.3633 81.1367 39.9395 81.1367ZM46.5361 73.3711C47.1742 73.3711 47.721 73.5124 48.1768 73.7949C48.6325 74.0775 48.9811 74.474 49.2227 74.9844C49.4642 75.4902 49.585 76.0827 49.585 76.7617V77.4658H44.4102C44.4238 78.3454 44.6426 79.0153 45.0664 79.4756C45.4902 79.9359 46.0872 80.166 46.8574 80.166C47.3314 80.166 47.7507 80.1227 48.1152 80.0361C48.4798 79.9495 48.8581 79.8219 49.25 79.6533V80.6514C48.8717 80.82 48.4958 80.943 48.1221 81.0205C47.7529 81.098 47.3154 81.1367 46.8096 81.1367C46.0895 81.1367 45.4606 80.9909 44.9229 80.6992C44.3896 80.403 43.9749 79.9701 43.6787 79.4004C43.3825 78.8307 43.2344 78.1335 43.2344 77.3086C43.2344 76.502 43.3688 75.8047 43.6377 75.2168C43.9111 74.6243 44.2939 74.1686 44.7861 73.8496C45.2829 73.5306 45.8662 73.3711 46.5361 73.3711ZM46.5225 74.3008C45.9163 74.3008 45.4333 74.499 45.0732 74.8955C44.7132 75.292 44.499 75.8457 44.4307 76.5566H48.3955C48.391 76.11 48.3203 75.7181 48.1836 75.3809C48.0514 75.0391 47.8486 74.7747 47.5752 74.5879C47.3018 74.3965 46.9508 74.3008 46.5225 74.3008ZM52.6475 70.3633V73.542C52.6475 73.7243 52.6429 73.9089 52.6338 74.0957C52.6247 74.278 52.6087 74.4466 52.5859 74.6016H52.6611C52.8161 74.3372 53.012 74.1162 53.249 73.9385C53.4906 73.7562 53.764 73.6195 54.0693 73.5283C54.3747 73.4326 54.6982 73.3848 55.04 73.3848C55.6416 73.3848 56.1429 73.4805 56.5439 73.6719C56.9495 73.8633 57.2526 74.1595 57.4531 74.5605C57.6582 74.9616 57.7607 75.4811 57.7607 76.1191V81H56.6396V76.1943C56.6396 75.57 56.4961 75.1029 56.209 74.793C55.9264 74.4831 55.4912 74.3281 54.9033 74.3281C54.3473 74.3281 53.903 74.4352 53.5703 74.6494C53.2422 74.859 53.0052 75.1689 52.8594 75.5791C52.7181 75.9893 52.6475 76.4906 52.6475 77.083V81H51.5127V70.3633H52.6475ZM66.5586 77.2402C66.5586 77.8555 66.4788 78.4046 66.3193 78.8877C66.1598 79.3708 65.9297 79.7786 65.6289 80.1113C65.3281 80.444 64.9635 80.6992 64.5352 80.877C64.1113 81.0501 63.6305 81.1367 63.0928 81.1367C62.5915 81.1367 62.1312 81.0501 61.7119 80.877C61.2972 80.6992 60.9372 80.444 60.6318 80.1113C60.3311 79.7786 60.0964 79.3708 59.9277 78.8877C59.7637 78.4046 59.6816 77.8555 59.6816 77.2402C59.6816 76.4199 59.8206 75.7227 60.0986 75.1484C60.3766 74.5697 60.7731 74.1299 61.2881 73.8291C61.8076 73.5238 62.4251 73.3711 63.1406 73.3711C63.8242 73.3711 64.4212 73.5238 64.9316 73.8291C65.4466 74.1344 65.8454 74.5765 66.1279 75.1553C66.415 75.7295 66.5586 76.4245 66.5586 77.2402ZM60.8574 77.2402C60.8574 77.8418 60.9372 78.3636 61.0967 78.8057C61.2562 79.2477 61.5023 79.5895 61.835 79.8311C62.1676 80.0726 62.596 80.1934 63.1201 80.1934C63.6396 80.1934 64.0658 80.0726 64.3984 79.8311C64.7357 79.5895 64.984 79.2477 65.1436 78.8057C65.3031 78.3636 65.3828 77.8418 65.3828 77.2402C65.3828 76.6432 65.3031 76.1283 65.1436 75.6953C64.984 75.2578 64.738 74.9206 64.4053 74.6836C64.0726 74.4466 63.6419 74.3281 63.1133 74.3281C62.334 74.3281 61.762 74.5856 61.3975 75.1006C61.0374 75.6156 60.8574 76.3288 60.8574 77.2402ZM69.6621 81H68.5205V70.3633H69.6621V81ZM74.7275 81.1367C73.7796 81.1367 73.0277 80.8132 72.4717 80.166C71.9202 79.5189 71.6445 78.5573 71.6445 77.2812C71.6445 75.9915 71.9271 75.0186 72.4922 74.3623C73.0573 73.7015 73.8092 73.3711 74.748 73.3711C75.1445 73.3711 75.4909 73.4235 75.7871 73.5283C76.0833 73.6331 76.3385 73.7744 76.5527 73.9521C76.7669 74.1253 76.9469 74.3236 77.0928 74.5469H77.1748C77.1566 74.4056 77.1383 74.2119 77.1201 73.9658C77.1019 73.7197 77.0928 73.5192 77.0928 73.3643V70.3633H78.2275V81H77.3115L77.1406 79.9336H77.0928C76.9515 80.1569 76.7715 80.3597 76.5527 80.542C76.3385 80.7243 76.0811 80.8701 75.7803 80.9795C75.484 81.0843 75.1331 81.1367 74.7275 81.1367ZM74.9053 80.1934C75.7074 80.1934 76.2747 79.9655 76.6074 79.5098C76.9401 79.054 77.1064 78.3773 77.1064 77.4795V77.2744C77.1064 76.3219 76.9469 75.5905 76.6279 75.0801C76.3135 74.5697 75.7393 74.3145 74.9053 74.3145C74.208 74.3145 73.6862 74.5833 73.3398 75.1211C72.9935 75.6543 72.8203 76.3835 72.8203 77.3086C72.8203 78.2292 72.9912 78.9401 73.333 79.4414C73.6794 79.9427 74.2035 80.1934 74.9053 80.1934ZM83.5186 73.3711C84.1566 73.3711 84.7035 73.5124 85.1592 73.7949C85.6149 74.0775 85.9635 74.474 86.2051 74.9844C86.4466 75.4902 86.5674 76.0827 86.5674 76.7617V77.4658H81.3926C81.4062 78.3454 81.625 79.0153 82.0488 79.4756C82.4727 79.9359 83.0697 80.166 83.8398 80.166C84.3138 80.166 84.7331 80.1227 85.0977 80.0361C85.4622 79.9495 85.8405 79.8219 86.2324 79.6533V80.6514C85.8542 80.82 85.4782 80.943 85.1045 81.0205C84.7354 81.098 84.2979 81.1367 83.792 81.1367C83.0719 81.1367 82.443 80.9909 81.9053 80.6992C81.3721 80.403 80.9574 79.9701 80.6611 79.4004C80.3649 78.8307 80.2168 78.1335 80.2168 77.3086C80.2168 76.502 80.3512 75.8047 80.6201 75.2168C80.8936 74.6243 81.2764 74.1686 81.7686 73.8496C82.2653 73.5306 82.8486 73.3711 83.5186 73.3711ZM83.5049 74.3008C82.8988 74.3008 82.4157 74.499 82.0557 74.8955C81.6956 75.292 81.4814 75.8457 81.4131 76.5566H85.3779C85.3734 76.11 85.3027 75.7181 85.166 75.3809C85.0339 75.0391 84.8311 74.7747 84.5576 74.5879C84.2842 74.3965 83.9333 74.3008 83.5049 74.3008ZM91.8994 73.3711C92.0498 73.3711 92.207 73.3802 92.3711 73.3984C92.5352 73.4121 92.681 73.4326 92.8086 73.46L92.665 74.5127C92.542 74.4808 92.4053 74.4557 92.2549 74.4375C92.1045 74.4193 91.9632 74.4102 91.8311 74.4102C91.5303 74.4102 91.2454 74.4717 90.9766 74.5947C90.7122 74.7132 90.4798 74.8864 90.2793 75.1143C90.0788 75.3376 89.9215 75.6087 89.8076 75.9277C89.6937 76.2422 89.6367 76.5931 89.6367 76.9805V81H88.4951V73.5078H89.4385L89.5615 74.8887H89.6094C89.7643 74.6107 89.9512 74.3577 90.1699 74.1299C90.3887 73.8975 90.6416 73.7129 90.9287 73.5762C91.2204 73.4395 91.5439 73.3711 91.8994 73.3711Z" fill="#807E7E"/>
<defs>
<clipPath id="clip0_253_178">
<rect width="63" height="45.913" fill="white" transform="translate(290 53)"/>
</clipPath>
</defs>
</svg>
